<svg xmlns="http://www.w3.org/2000/svg" xmlns:xlink="http://www.w3.org/1999/xlink" width="148.142" height="133.86" viewBox="0 0 148.142 133.86">
    <defs>
        <clipPath id="a">
            <path d="M107 92h41.140625v41.859375H107Zm0 0"/>
        </clipPath>
        <clipPath id="b">
            <path d="M97 77h51.140625v54H97Zm0 0"/>
        </clipPath>
        <clipPath id="c">
            <path d="M53 92h62v41.859375H53Zm0 0"/>
        </clipPath>
        <clipPath id="d">
            <path d="M103 125h17v8.859375h-17Zm0 0"/>
        </clipPath>
        <clipPath id="e">
            <path d="M80 102h62v31.859375H80Zm0 0"/>
        </clipPath>
        <clipPath id="f">
            <path d="M28 0h104v133.859375H28Zm0 0"/>
        </clipPath>
        <clipPath id="g">
            <path d="M56 37h51v96.859375H56Zm0 0"/>
        </clipPath>
        <path id="h" d="M14.21875 0v-17.203125h-2.078125V-9.6875h-7.875v-7.515625H2.1875V0h2.078125v-8.171875h7.875V0Zm0 0"/>
        <path id="i" d="M3.671875 0v-10.65625h-1.84375V0ZM3.8125-13.984375V-16.0625H1.734375v2.078125Zm0 0"/>
        <path id="j" d="M11.625-4.734375c0-.984375-.296875-2.25-1.34375-3.421875C9.265625-9.265625 8.375-9.515625 6.34375-10.0625c-1.171875-.296875-1.90625-.5-2.53125-1.265625-.421875-.546875-.640625-1.0625-.640625-1.734375 0-1.390625 1.1875-2.890625 3.375-2.890625 1.078125 0 2.5.21875 3.9375 1.5625l.34375-1.984375c-1.09375-.65625-2.28125-1.21875-4.28125-1.21875-3.203125 0-5.265625 2.359375-5.265625 4.75 0 .953125.28125 2.015625 1.25 3.109375C3.5-8.65625 4.578125-8.34375 5.96875-8c.578125.140625 1.546875.421875 1.71875.484375 1.375.546875 2.046875 1.8125 2.046875 3 0 1.5625-1.203125 3.234375-3.359375 3.234375-.75 0-2.9375-.125-4.984375-2.015625l-.34375 1.953125C3.078125.15625 5.28125.390625 6.390625.390625 9.4375.390625 11.625-2 11.625-4.734375m0 0"/>
        <path id="k" d="M13.5625-12.1875c0-2.6875-2.34375-5.015625-5.5625-5.015625H2.203125V0H4.28125v-7.15625h3.875c2.96875 0 5.40625-2.3125 5.40625-5.03125m-1.96875 0c0 1.6875-1.15625 3.59375-4.140625 3.59375h-3.21875v-7.21875h3.21875c2.875 0 4.140625 1.8125 4.140625 3.625m0 0"/>
        <path id="l" d="M14.34375 0 9.765625-8.078125l.046875-.03125C13.671875-9.4375 13.703125-12.125 13.703125-12.59375c0-2.34375-2.375-4.609375-5.953125-4.609375H2.203125V0h2.03125v-7.859375H7.875L12.265625 0ZM11.75-12.59375c0 1.34375-1 3.21875-4.265625 3.21875h-3.25v-6.4375h3.25c3.140625 0 4.265625 1.78125 4.265625 3.21875m0 0"/>
        <path id="m" d="m13.5625-1.171875-.15625-1.671875c-.671875.46875-1.3125.9375-2.109375 1.1875-.765625.25-1.5625.265625-2.34375.265625-1.515625 0-2.875-.859375-3.78125-2.078125C4.0625-4.9375 3.5625-6.71875 3.5625-8.5c0-1.8125.5-3.625 1.609375-5.0625.90625-1.1875 2.265625-2.078125 3.78125-2.078125.71875 0 1.40625.078125 2.078125.296875.6875.203125 1.3125.578125 1.921875.953125L13.3125-16.375q-1.054687-.421875-2.15625-.65625c-.71875-.140625-1.46875-.1875-2.203125-.1875-2.046875 0-3.921875.984375-5.265625 2.546875C2.234375-12.953125 1.515625-10.75 1.515625-8.5c0 2.234375.71875 4.4375 2.171875 6.140625 1.34375 1.5625 3.21875 2.5625 5.265625 2.5625.8125 0 1.625-.03125 2.421875-.25.796875-.25 1.484375-.671875 2.1875-1.125m0 0"/>
    </defs>
    <g clip-path="url(#a)">
        <path fill="none" stroke="#000" stroke-linecap="round" stroke-miterlimit="10" stroke-width="1.59404" d="M145.976562 120.695312c1.367188-2.105468-.9375-4.367187-5.148437-5.050781s-8.734375.46875-10.101563 2.574219c-1.371093 2.105469.933594 4.367187 5.144532 5.050781 4.214843.683594 8.738281-.46875 10.105468-2.574219Zm0 0"/>
    </g>
    <path fill="none" stroke="#000" stroke-linecap="round" stroke-miterlimit="10" stroke-width=".79701" d="m111.390625 115.078125 18.574219 3.015625"/>
    <path d="M135.679688 104.847656c1.367187-2.105468-.9375-4.367187-5.148438-5.050781s-8.734375.46875-10.105469 2.574219c-1.367187 2.105468.9375 4.367187 5.148438 5.050781 4.210937.6875 8.738281-.464844 10.105469-2.574219m0 0"/>
    <g clip-path="url(#b)">
        <path fill="none" stroke="#000" stroke-linecap="round" stroke-miterlimit="10" stroke-width="1.59404" d="M135.679687 104.847656c1.367188-2.105469-.9375-4.367187-5.148437-5.050781s-8.734375.46875-10.105469 2.574219c-1.367187 2.105468.9375 4.367187 5.148438 5.050781 4.210937.6875 8.738281-.464844 10.105468-2.574219Zm0 0"/>
    </g>
    <path fill="none" stroke="#000" stroke-linecap="round" stroke-miterlimit="10" stroke-width=".79701" d="m111.390625 115.078125 11.480469-7.902344"/>
    <path d="M92.058594 120.695312c1.367187-2.105468-.9375-4.367187-5.148438-5.050781s-8.738281.46875-10.105468 2.574219c-1.367188 2.105469.9375 4.367188 5.148437 5.050781s8.734375-.46875 10.105469-2.574219m0 0"/>
    <g clip-path="url(#c)">
        <path fill="none" stroke="#000" stroke-linecap="round" stroke-miterlimit="10" stroke-width="1.59404" d="M92.058594 120.695312c1.367187-2.105468-.9375-4.367187-5.148438-5.050781s-8.738281.46875-10.105469 2.574219.9375 4.367187 5.148438 5.050781 8.734375-.46875 10.105469-2.574219Zm0 0"/>
    </g>
    <path fill="none" stroke="#000" stroke-linecap="round" stroke-miterlimit="10" stroke-width=".79701" d="m111.390625 115.078125-18.574219 3.015625"/>
    <g clip-path="url(#d)">
        <path d="M119.015625 130.488281c1.371094-2.105469-.933594-4.367187-5.148437-5.050781-4.210938-.683594-8.734376.46875-10.101563 2.574219s.9375 4.367187 5.148437 5.050781 8.734376-.46875 10.101563-2.574219m0 0"/>
    </g>
    <g clip-path="url(#e)">
        <path fill="none" stroke="#000" stroke-linecap="round" stroke-miterlimit="10" stroke-width="1.59404" d="M119.015625 130.488281c1.371094-2.105469-.933594-4.367187-5.148438-5.050781-4.210937-.683594-8.734375.46875-10.101562 2.574219-1.367188 2.105468.9375 4.367187 5.148437 5.050781s8.734375-.46875 10.101563-2.574219Zm0 0"/>
    </g>
    <path fill="none" stroke="#000" stroke-linecap="round" stroke-miterlimit="10" stroke-width=".79701" d="M111.390625 115.078125v9.765625"/>
    <g clip-path="url(#f)">
        <path fill="none" stroke="#000" stroke-linecap="round" stroke-miterlimit="10" stroke-width="1.59404" d="M109.390625 124.957031 51.492187.796875"/>
    </g>
    <path fill="none" stroke="#000" stroke-linecap="round" stroke-miterlimit="10" stroke-width="1.59404" d="M124.328125 99.617187 70.8125 42.226562"/>
    <g clip-path="url(#g)">
        <path fill="none" stroke="#000" stroke-linecap="round" stroke-miterlimit="10" stroke-width="1.59404" d="M84.046875 115.054688 79.257812 60.34375"/>
    </g>
    <path fill="none" stroke="#000" stroke-linecap="round" stroke-miterlimit="10" stroke-width="1.59404" d="m81.328125 83.988281-5.988281 12.847656m15.085937-12.546875-1.234375 14.121094m7.222656-1.273437 11.613282 8.128906m-8.59375-32.347656 3.1875 13.8125m5.398437-4.605469 13.550781 4.144531M59.875 18.777344V47.125m0-15.589844 5.949219-.003906"/>
    <use xlink:href="#h" x="7.272" y="35.788"/>
    <use xlink:href="#i" x="23.708326" y="35.788"/>
    <use xlink:href="#j" x="29.225934" y="35.788"/>
    <use xlink:href="#k" x="42.177194" y="35.788"/>
    <use xlink:href="#l" x="69.69" y="35.788"/>
    <use xlink:href="#m" x="84.720897" y="35.788"/>
</svg>
