<svg xmlns="http://www.w3.org/2000/svg" xmlns:xlink="http://www.w3.org/1999/xlink" width="135.7" height="47.32" viewBox="0 0 135.7 47.32">
    <defs>
        <clipPath id="a">
            <path d="M8 19h42v28.320312H8Zm0 0"/>
        </clipPath>
        <clipPath id="b">
            <path d="M2 19h43v28.320312H2Zm0 0"/>
        </clipPath>
        <clipPath id="c">
            <path d="M5 14h42v33.320312H5Zm0 0"/>
        </clipPath>
        <clipPath id="d">
            <path d="M2 16h41v31.320312H2Zm0 0"/>
        </clipPath>
        <clipPath id="e">
            <path d="M0 19h34v28.320312H0Zm0 0"/>
        </clipPath>
        <clipPath id="f">
            <path d="M0 19h39v28.320312H0Zm0 0"/>
        </clipPath>
        <clipPath id="g">
            <path d="M0 22h42v25.320312H0Zm0 0"/>
        </clipPath>
        <clipPath id="h">
            <path d="M0 0h39v47.320312H0Zm0 0"/>
        </clipPath>
        <clipPath id="i">
            <path d="M0 0h43v47.320312H0Zm0 0"/>
        </clipPath>
        <clipPath id="j">
            <path d="M0 2h31v45.320312H0Zm0 0"/>
        </clipPath>
        <clipPath id="k">
            <path d="M0 9h33v38.320312H0Zm0 0"/>
        </clipPath>
        <clipPath id="l">
            <path d="M0 13h38v34.320312H0Zm0 0"/>
        </clipPath>
        <clipPath id="m">
            <path d="M0 9h30v38.320312H0Zm0 0"/>
        </clipPath>
        <path id="n" d="M14.21875 0v-17.203125h-2.078125V-9.6875h-7.875v-7.515625H2.1875V0h2.078125v-8.171875h7.875V0Zm0 0"/>
        <path id="o" d="M3.671875 0v-10.65625h-1.84375V0ZM3.8125-13.984375V-16.0625H1.734375v2.078125Zm0 0"/>
        <path id="p" d="M11.625-4.734375c0-.984375-.296875-2.25-1.34375-3.421875C9.265625-9.265625 8.375-9.515625 6.34375-10.0625c-1.171875-.296875-1.90625-.5-2.53125-1.265625-.421875-.546875-.640625-1.0625-.640625-1.734375 0-1.390625 1.1875-2.890625 3.375-2.890625 1.078125 0 2.5.21875 3.9375 1.5625l.34375-1.984375c-1.09375-.65625-2.28125-1.21875-4.28125-1.21875-3.203125 0-5.265625 2.359375-5.265625 4.75 0 .953125.28125 2.015625 1.25 3.109375C3.5-8.65625 4.578125-8.34375 5.96875-8c.578125.140625 1.546875.421875 1.71875.484375 1.375.546875 2.046875 1.8125 2.046875 3 0 1.5625-1.203125 3.234375-3.359375 3.234375-.75 0-2.9375-.125-4.984375-2.015625l-.34375 1.953125C3.078125.15625 5.28125.390625 6.390625.390625 9.4375.390625 11.625-2 11.625-4.734375m0 0"/>
        <path id="q" d="M13.5625-12.1875c0-2.6875-2.34375-5.015625-5.5625-5.015625H2.203125V0H4.28125v-7.15625h3.875c2.96875 0 5.40625-2.3125 5.40625-5.03125m-1.96875 0c0 1.6875-1.15625 3.59375-4.140625 3.59375h-3.21875v-7.21875h3.21875c2.875 0 4.140625 1.8125 4.140625 3.625m0 0"/>
        <path id="r" d="M14.8125 0 8.796875-17.203125h-2.125L.640625 0H2.53125l1.734375-5h6.640625l1.75 5Zm-4.375-6.390625H4.734375c1.1875-3.46875 2.671875-7.78125 2.84375-8.90625h.03125c.171875 1.015625.671875 2.515625 1.09375 3.78125Zm0 0"/>
        <path id="s" d="M14.34375 0 9.765625-8.078125l.046875-.03125C13.671875-9.4375 13.703125-12.125 13.703125-12.59375c0-2.34375-2.375-4.609375-5.953125-4.609375H2.203125V0h2.03125v-7.859375H7.875L12.265625 0ZM11.75-12.59375c0 1.34375-1 3.21875-4.265625 3.21875h-3.25v-6.4375h3.25c3.140625 0 4.265625 1.78125 4.265625 3.21875m0 0"/>
        <path id="t" d="m13.5625-1.171875-.15625-1.671875c-.671875.46875-1.3125.9375-2.109375 1.1875-.765625.25-1.5625.265625-2.34375.265625-1.515625 0-2.875-.859375-3.78125-2.078125C4.0625-4.9375 3.5625-6.71875 3.5625-8.5c0-1.8125.5-3.625 1.609375-5.0625.90625-1.1875 2.265625-2.078125 3.78125-2.078125.71875 0 1.40625.078125 2.078125.296875.6875.203125 1.3125.578125 1.921875.953125L13.3125-16.375q-1.054687-.421875-2.15625-.65625c-.71875-.140625-1.46875-.1875-2.203125-.1875-2.046875 0-3.921875.984375-5.265625 2.546875C2.234375-12.953125 1.515625-10.75 1.515625-8.5c0 2.234375.71875 4.4375 2.171875 6.140625 1.34375 1.5625 3.21875 2.5625 5.265625 2.5625.8125 0 1.625-.03125 2.421875-.25.796875-.25 1.484375-.671875 2.1875-1.125m0 0"/>
    </defs>
    <g clip-path="url(#a)">
        <path fill="none" stroke="#000" stroke-linecap="round" stroke-miterlimit="10" stroke-width="1.2756" d="M31.210938 38.835937c.410156-.632812-.28125-1.308593-1.54297-1.515625-1.265624-.20703-2.621093.140625-3.03125.773438-.410155.628906.28125 1.308594 1.54297 1.515625 1.265624.203125 2.621093-.140625 3.03125-.773438Zm0 0"/>
    </g>
    <g clip-path="url(#b)">
        <path fill="none" stroke="#000" stroke-linecap="round" stroke-miterlimit="10" stroke-width="1.2756" d="m20.835938 37.152344 5.195312.84375"/>
    </g>
    <path d="M28.121094 34.082031c.414062-.632812-.277344-1.308593-1.542969-1.515625-1.261719-.207031-2.621094.140625-3.03125.773438-.410156.628906.28125 1.308594 1.542969 1.515625 1.265625.203125 2.621094-.140625 3.03125-.773438m0 0"/>
    <g clip-path="url(#c)">
        <path fill="none" stroke="#000" stroke-linecap="round" stroke-miterlimit="10" stroke-width="1.2756" d="M28.121094 34.082031c.414062-.632812-.277344-1.308594-1.542969-1.515625-1.261719-.20703-2.621094.140625-3.03125.773438-.410156.628906.28125 1.308594 1.542969 1.515625 1.265625.203125 2.621093-.140625 3.03125-.773438Zm0 0"/>
    </g>
    <g clip-path="url(#d)">
        <path fill="none" stroke="#000" stroke-linecap="round" stroke-miterlimit="10" stroke-width="1.2756" d="m20.835938 37.152344 3.210937-2.210938"/>
    </g>
    <path d="M15.035156 38.835938c.410156-.632813-.28125-1.308594-1.542968-1.515626-1.265626-.207031-2.621094.140626-3.03125.773438-.410157.628906.28125 1.308594 1.542968 1.515625 1.265625.203125 2.621094-.140625 3.03125-.773437m0 0"/>
    <g clip-path="url(#e)">
        <path fill="none" stroke="#000" stroke-linecap="round" stroke-miterlimit="10" stroke-width="1.2756" d="M15.035156 38.835937c.410157-.632812-.28125-1.308593-1.542968-1.515625-1.265625-.20703-2.621094.140625-3.03125.773438-.410157.628906.28125 1.308594 1.542968 1.515625 1.265625.203125 2.621094-.140625 3.03125-.773438Zm0 0"/>
    </g>
    <g clip-path="url(#f)">
        <path fill="none" stroke="#000" stroke-linecap="round" stroke-miterlimit="10" stroke-width="1.2756" d="m20.835938 37.152344-5.191407.839843"/>
    </g>
    <path d="M23.125 41.773438c.410156-.632813-.28125-1.308594-1.546875-1.515626-1.261719-.203124-2.617187.140626-3.03125.773438-.410156.632812.28125 1.308594 1.546875 1.515625 1.261719.203125 2.621094-.140625 3.03125-.773437m0 0"/>
    <g clip-path="url(#g)">
        <path fill="none" stroke="#000" stroke-linecap="round" stroke-miterlimit="10" stroke-width="1.2756" d="M23.125 41.773438c.410156-.632813-.28125-1.308594-1.546875-1.515625-1.261719-.203126-2.617187.140625-3.03125.773437-.410156.632813.28125 1.308594 1.546875 1.515625 1.261719.203125 2.621094-.140625 3.03125-.773437Zm0 0"/>
    </g>
    <path fill="none" stroke="#000" stroke-linecap="round" stroke-miterlimit="10" stroke-width="1.2756" d="M20.835938 37.152344v2.726562"/>
    <path fill="#fff" d="M4.140625 2.867188c0-.707032-.570313-1.277344-1.273437-1.277344-.707032 0-1.277344.570312-1.277344 1.277344 0 .703124.570312 1.273437 1.277344 1.273437.703124 0 1.273437-.570313 1.273437-1.273437m0 0"/>
    <g clip-path="url(#h)">
        <path fill="none" stroke="#000" stroke-linecap="round" stroke-miterlimit="10" stroke-width="1.2756" d="M20.144531 39.921875 2.867187 2.867188"/>
    </g>
    <path fill="none" stroke="#000" stroke-linecap="round" stroke-miterlimit="10" stroke-width="1.2756" d="M5.382813 8.261719v8.503906"/>
    <g clip-path="url(#i)">
        <path fill="none" stroke="#000" stroke-linecap="round" stroke-miterlimit="10" stroke-width="1.2756" d="M24.550781 32.332031 8.664063 15.296875"/>
    </g>
    <g clip-path="url(#j)">
        <path fill="none" stroke="#000" stroke-linecap="round" stroke-miterlimit="10" stroke-width="1.2756" d="m12.617187 36.945313-1.421874-16.214844"/>
    </g>
    <g clip-path="url(#k)">
        <path fill="none" stroke="#000" stroke-linecap="round" stroke-miterlimit="10" stroke-width="1.2756" d="m14.546875 27.914062-.371094 4.234376"/>
    </g>
    <g clip-path="url(#l)">
        <path fill="none" stroke="#000" stroke-linecap="round" stroke-miterlimit="10" stroke-width="1.2756" d="m16.34375 31.769531 3.484375 2.4375"/>
    </g>
    <path fill="none" stroke="#000" stroke-linecap="round" stroke-miterlimit="10" stroke-width="1.2756" d="m17.25 24.503906.957031 4.140625m1.617188-1.378906 4.066406 1.242188"/>
    <g clip-path="url(#m)">
        <path fill="none" stroke="#000" stroke-linecap="round" stroke-miterlimit="10" stroke-width="1.2756" d="m11.816406 27.824219-1.796875 3.855469"/>
    </g>
    <use xlink:href="#n" x="38.337" y="43.184"/>
    <use xlink:href="#o" x="54.773326" y="43.184"/>
    <use xlink:href="#p" x="60.290934" y="43.184"/>
    <use xlink:href="#q" x="73.242194" y="43.184"/>
    <use xlink:href="#r" x="86.171146" y="43.184"/>
    <use xlink:href="#s" x="101.65069" y="43.184"/>
    <use xlink:href="#t" x="116.681587" y="43.184"/>
</svg>
