<svg xmlns="http://www.w3.org/2000/svg" xmlns:xlink="http://www.w3.org/1999/xlink" width="129.485" height="133.86" viewBox="0 0 129.485 133.86">
    <defs>
        <clipPath id="a">
            <path d="M89 92h40.484375v41.859375H89Zm0 0"/>
        </clipPath>
        <clipPath id="b">
            <path d="M78 77h51.484375v54H78Zm0 0"/>
        </clipPath>
        <clipPath id="c">
            <path d="M35 92h62v41.859375H35Zm0 0"/>
        </clipPath>
        <clipPath id="d">
            <path d="M84 125h17v8.859375H84Zm0 0"/>
        </clipPath>
        <clipPath id="e">
            <path d="M62 102h62v31.859375H62Zm0 0"/>
        </clipPath>
        <clipPath id="f">
            <path d="M10 0h104v133.859375H10Zm0 0"/>
        </clipPath>
        <clipPath id="g">
            <path d="M38 37h50v96.859375H38Zm0 0"/>
        </clipPath>
        <path id="h" d="M4.3125 1.484375V-10.65625H2.484375V1.703125c0 1.5-1.046875 1.734375-1.71875 1.734375S-.46875 3.203125-.9375 2.671875l-.5 1.515625c.796875.5 1.765625.84375 2.796875.84375 1.5625 0 2.953125-1.34375 2.953125-3.546875m0-15.46875V-16.0625H2.234375v2.078125Zm0 0"/>
        <path id="i" d="M11.625-4.734375c0-.984375-.296875-2.25-1.34375-3.421875C9.265625-9.265625 8.375-9.515625 6.34375-10.0625c-1.171875-.296875-1.90625-.5-2.53125-1.265625-.421875-.546875-.640625-1.0625-.640625-1.734375 0-1.390625 1.1875-2.890625 3.375-2.890625 1.078125 0 2.5.21875 3.9375 1.5625l.34375-1.984375c-1.09375-.65625-2.28125-1.21875-4.28125-1.21875-3.203125 0-5.265625 2.359375-5.265625 4.75 0 .953125.28125 2.015625 1.25 3.109375C3.5-8.65625 4.578125-8.34375 5.96875-8c.578125.140625 1.546875.421875 1.71875.484375 1.375.546875 2.046875 1.8125 2.046875 3 0 1.5625-1.203125 3.234375-3.359375 3.234375-.75 0-2.9375-.125-4.984375-2.015625l-.34375 1.953125C3.078125.15625 5.28125.390625 6.390625.390625 9.4375.390625 11.625-2 11.625-4.734375m0 0"/>
        <path id="j" d="M11.15625-5.359375c0-2.921875-1.484375-5.5-3.625-5.5-1.234375 0-2.71875.453125-3.84375 1.34375v-1.140625H1.859375V4.828125h1.875v-5.9375c.828125.78125 1.9375 1.3125 3.125 1.3125 2.3125 0 4.296875-2.390625 4.296875-5.5625m-1.890625 0c0 2.453125-1.6875 4.046875-3.34375 4.046875-.5 0-1.015625-.125-1.515625-.546875-.671875-.59375-.671875-.96875-.671875-1.3125v-4.875c.203125-.296875 1.046875-1.25 2.40625-1.25 1.734375 0 3.125 1.78125 3.125 3.9375m0 0"/>
        <path id="k" d="M7.578125-9.21875v-1.640625C6-10.828125 4.515625-10.03125 3.625-8.75v-1.984375H1.859375V0H3.6875v-5.28125c0-2.328125 1.71875-3.890625 3.890625-3.9375m0 0"/>
        <path id="l" d="M9.6875-.984375 9.546875-2.625c-1.078125.8125-2.3125 1.265625-3.65625 1.265625-1.921875 0-3.1875-1.6875-3.1875-4 0-1.78125.8125-4.03125 3.296875-4.03125 1.359375 0 2.125.265625 3.265625 1.046875l.28125-1.546875c0-.171875-1.140625-.671875-1.4375-.765625-.828125-.296875-1.859375-.296875-2.140625-.296875-3.21875 0-5.15625 2.796875-5.15625 5.625 0 2.96875 2.15625 5.53125 5.0625 5.53125 1.65625 0 2.84375-.546875 3.8125-1.1875m0 0"/>
    </defs>
    <g clip-path="url(#a)">
        <path fill="none" stroke="#000" stroke-linecap="round" stroke-miterlimit="10" stroke-width="1.59404" d="M127.320312 120.695312c1.367188-2.105468-.9375-4.367187-5.148437-5.050781s-8.734375.46875-10.105469 2.574219c-1.367187 2.105469.9375 4.367187 5.148438 5.050781s8.734375-.46875 10.105468-2.574219Zm0 0"/>
    </g>
    <path fill="none" stroke="#000" stroke-linecap="round" stroke-miterlimit="10" stroke-width=".79701" d="m92.734375 115.078125 18.574219 3.015625"/>
    <path d="M117.023438 104.847656c1.367187-2.105468-.9375-4.367187-5.148438-5.050781s-8.738281.46875-10.105469 2.574219.9375 4.367187 5.148438 5.050781c4.210937.6875 8.734375-.464844 10.105469-2.574219m0 0"/>
    <g clip-path="url(#b)">
        <path fill="none" stroke="#000" stroke-linecap="round" stroke-miterlimit="10" stroke-width="1.59404" d="M117.023437 104.847656c1.367188-2.105469-.9375-4.367187-5.148437-5.050781s-8.738281.46875-10.105469 2.574219.9375 4.367187 5.148438 5.050781c4.210937.6875 8.734375-.464844 10.105468-2.574219Zm0 0"/>
    </g>
    <path fill="none" stroke="#000" stroke-linecap="round" stroke-miterlimit="10" stroke-width=".79701" d="m92.734375 115.078125 11.480469-7.902344"/>
    <path d="M73.398438 120.695312c1.371093-2.105468-.933594-4.367187-5.144532-5.050781-4.214844-.683593-8.738281.46875-10.105468 2.574219-1.367188 2.105469.9375 4.367188 5.148437 5.050781s8.734375-.46875 10.101563-2.574219m0 0"/>
    <g clip-path="url(#c)">
        <path fill="none" stroke="#000" stroke-linecap="round" stroke-miterlimit="10" stroke-width="1.59404" d="M73.398437 120.695312c1.371094-2.105468-.933593-4.367187-5.144531-5.050781-4.214844-.683594-8.738281.46875-10.105469 2.574219s.9375 4.367187 5.148438 5.050781 8.734375-.46875 10.101562-2.574219Zm0 0"/>
    </g>
    <path fill="none" stroke="#000" stroke-linecap="round" stroke-miterlimit="10" stroke-width=".79701" d="M92.734375 115.078125 74.15625 118.09375"/>
    <g clip-path="url(#d)">
        <path d="M100.359375 130.488281c1.367187-2.105469-.9375-4.367187-5.148437-5.050781s-8.734376.46875-10.101563 2.574219c-1.371094 2.105469.933594 4.367187 5.148437 5.050781 4.210938.683594 8.734376-.46875 10.101563-2.574219m0 0"/>
    </g>
    <g clip-path="url(#e)">
        <path fill="none" stroke="#000" stroke-linecap="round" stroke-miterlimit="10" stroke-width="1.59404" d="M100.359375 130.488281c1.367187-2.105469-.9375-4.367187-5.148438-5.050781s-8.734375.46875-10.101562 2.574219c-1.371094 2.105468.933594 4.367187 5.148437 5.050781 4.210938.683594 8.734375-.46875 10.101563-2.574219Zm0 0"/>
    </g>
    <path fill="none" stroke="#000" stroke-linecap="round" stroke-miterlimit="10" stroke-width=".79701" d="M92.734375 115.078125v9.765625"/>
    <g clip-path="url(#f)">
        <path fill="none" stroke="#000" stroke-linecap="round" stroke-miterlimit="10" stroke-width="1.59404" d="M90.734375 124.957031 32.832031.796875"/>
    </g>
    <path fill="none" stroke="#000" stroke-linecap="round" stroke-miterlimit="10" stroke-width="1.59404" d="M105.671875 99.617187 52.152344 42.226562"/>
    <g clip-path="url(#g)">
        <path fill="none" stroke="#000" stroke-linecap="round" stroke-miterlimit="10" stroke-width="1.59404" d="M65.390625 115.054688 60.601562 60.34375"/>
    </g>
    <path fill="none" stroke="#000" stroke-linecap="round" stroke-miterlimit="10" stroke-width="1.59404" d="m62.671875 83.988281-5.992188 12.847656m15.089844-12.546875-1.234375 14.121094m7.222656-1.273437 11.609375 8.128906m-8.59375-32.347656 3.191407 13.8125M89.359375 82.125l13.554687 4.144531M41.21875 18.777344V47.125m0-15.589844 5.949219-.003906"/>
    <use xlink:href="#h" x="7.272" y="35.788"/>
    <use xlink:href="#i" x="13.43903" y="35.788"/>
    <use xlink:href="#j" x="26.39029" y="35.788"/>
    <use xlink:href="#k" x="51.033" y="35.788"/>
    <use xlink:href="#l" x="58.972308" y="35.788"/>
</svg>
