<svg xmlns="http://www.w3.org/2000/svg" xmlns:xlink="http://www.w3.org/1999/xlink" width="208.487pt" height="199.828pt" viewBox="0 0 208.487 199.828">
    <defs>
        <clipPath id="a">
            <path d="M82 172h42v27.828125H82Zm0 0"/>
        </clipPath>
        <clipPath id="b">
            <path d="M77 172h42v27.828125H77Zm0 0"/>
        </clipPath>
        <clipPath id="c">
            <path d="M79 167h42v32.828125H79Zm0 0"/>
        </clipPath>
        <clipPath id="d">
            <path d="M77 169h40v30.828125H77Zm0 0"/>
        </clipPath>
        <clipPath id="e">
            <path d="M66 172h42v27.828125H66Zm0 0"/>
        </clipPath>
        <clipPath id="f">
            <path d="M71 172h43v27.828125H71Zm0 0"/>
        </clipPath>
        <clipPath id="g">
            <path d="M74 175h42v24.828125H74Zm0 0"/>
        </clipPath>
        <clipPath id="h">
            <path d="M59 137h54v62.828125H59Zm0 0"/>
        </clipPath>
        <clipPath id="i">
            <path d="M65 150h52v49.828125H65Zm0 0"/>
        </clipPath>
        <clipPath id="j">
            <path d="M67 155h39v44.828125H67Zm0 0"/>
        </clipPath>
        <clipPath id="k">
            <path d="M66 162h39v37.828125H66Zm0 0"/>
        </clipPath>
        <clipPath id="l">
            <path d="M70 162h37v37.828125H70Zm0 0"/>
        </clipPath>
        <clipPath id="m">
            <path d="M72 166h41v33.828125H72Zm0 0"/>
        </clipPath>
        <clipPath id="n">
            <path d="M73 159h38v40.828125H73Zm0 0"/>
        </clipPath>
        <clipPath id="o">
            <path d="M76 162h41v37.828125H76Zm0 0"/>
        </clipPath>
        <symbol id="p" overflow="visible">
            <path d="M14.21875 0v-17.203125h-2.078125V-9.6875h-7.875v-7.515625H2.1875V0h2.078125v-8.171875h7.875V0Zm0 0" style="stroke:none"/>
        </symbol>
        <symbol id="q" overflow="visible">
            <path d="M3.671875 0v-10.65625h-1.84375V0ZM3.8125-13.984375V-16.0625H1.734375v2.078125Zm0 0" style="stroke:none"/>
        </symbol>
        <symbol id="r" overflow="visible">
            <path d="M11.625-4.734375c0-.984375-.296875-2.25-1.34375-3.421875C9.265625-9.265625 8.375-9.515625 6.34375-10.0625c-1.171875-.296875-1.90625-.5-2.53125-1.265625-.421875-.546875-.640625-1.0625-.640625-1.734375 0-1.390625 1.1875-2.890625 3.375-2.890625 1.078125 0 2.5.21875 3.9375 1.5625l.34375-1.984375c-1.09375-.65625-2.28125-1.21875-4.28125-1.21875-3.203125 0-5.265625 2.359375-5.265625 4.75 0 .953125.28125 2.015625 1.25 3.109375C3.5-8.65625 4.578125-8.34375 5.96875-8c.578125.140625 1.546875.421875 1.71875.484375 1.375.546875 2.046875 1.8125 2.046875 3 0 1.5625-1.203125 3.234375-3.359375 3.234375-.75 0-2.9375-.125-4.984375-2.015625l-.34375 1.953125C3.078125.15625 5.28125.390625 6.390625.390625 9.4375.390625 11.625-2 11.625-4.734375m0 0" style="stroke:none"/>
        </symbol>
        <symbol id="s" overflow="visible">
            <path d="M13.5625-12.1875c0-2.6875-2.34375-5.015625-5.5625-5.015625H2.203125V0H4.28125v-7.15625h3.875c2.96875 0 5.40625-2.3125 5.40625-5.03125m-1.96875 0c0 1.6875-1.15625 3.59375-4.140625 3.59375h-3.21875v-7.21875h3.21875c2.875 0 4.140625 1.8125 4.140625 3.625m0 0" style="stroke:none"/>
        </symbol>
        <symbol id="t" overflow="visible">
            <path d="M14.8125 0 8.796875-17.203125h-2.125L.640625 0H2.53125l1.734375-5h6.640625l1.75 5Zm-4.375-6.390625H4.734375c1.1875-3.46875 2.671875-7.78125 2.84375-8.90625h.03125c.171875 1.015625.671875 2.515625 1.09375 3.78125Zm0 0" style="stroke:none"/>
        </symbol>
        <symbol id="u" overflow="visible">
            <path d="M14.34375 0 9.765625-8.078125l.046875-.03125C13.671875-9.4375 13.703125-12.125 13.703125-12.59375c0-2.34375-2.375-4.609375-5.953125-4.609375H2.203125V0h2.03125v-7.859375H7.875L12.265625 0ZM11.75-12.59375c0 1.34375-1 3.21875-4.265625 3.21875h-3.25v-6.4375h3.25c3.140625 0 4.265625 1.78125 4.265625 3.21875m0 0" style="stroke:none"/>
        </symbol>
        <symbol id="v" overflow="visible">
            <path d="m13.5625-1.171875-.15625-1.671875c-.671875.46875-1.3125.9375-2.109375 1.1875-.765625.25-1.5625.265625-2.34375.265625-1.515625 0-2.875-.859375-3.78125-2.078125C4.0625-4.9375 3.5625-6.71875 3.5625-8.5c0-1.8125.5-3.625 1.609375-5.0625.90625-1.1875 2.265625-2.078125 3.78125-2.078125.71875 0 1.40625.078125 2.078125.296875.6875.203125 1.3125.578125 1.921875.953125L13.3125-16.375c-.703125-.28125-1.421875-.5-2.15625-.65625-.71875-.140625-1.46875-.1875-2.203125-.1875-2.046875 0-3.921875.984375-5.265625 2.546875C2.234375-12.953125 1.515625-10.75 1.515625-8.5c0 2.234375.71875 4.4375 2.171875 6.140625 1.34375 1.5625 3.21875 2.5625 5.265625 2.5625.8125 0 1.625-.03125 2.421875-.25.796875-.25 1.484375-.671875 2.1875-1.125m0 0" style="stroke:none"/>
        </symbol>
    </defs>
    <g clip-path="url(#a)">
        <path d="M34.586479-5.617833c1.367188 2.109375-.9375 4.361979-5.143229 5.052083-4.21875.677083-8.736979-.46875-10.104167-2.578125-1.380208-2.109375.924479-4.361979 5.143229-5.052083 4.20573-.677084 8.73698.46875 10.104167 2.578125Zm0 0" style="fill:none;stroke-width:4.252;stroke-linecap:round;stroke-linejoin:miter;stroke:#000;stroke-opacity:1;stroke-miterlimit:10" transform="matrix(.3 0 0 -.3 95.2139 190.1584)"/>
    </g>
    <g clip-path="url(#b)">
        <path d="m.003146-.005854 17.304687-2.8125" style="fill:none;stroke-width:4.252;stroke-linecap:round;stroke-linejoin:miter;stroke:#000;stroke-opacity:1;stroke-miterlimit:10" transform="matrix(.3 0 0 -.3 95.2139 190.1584)"/>
    </g>
    <path d="M102.5 187.089844c.410156-.632813-.28125-1.308594-1.542969-1.515625-1.265625-.203125-2.621093.140625-3.03125.773437-.410156.632813.28125 1.308594 1.542969 1.515625 1.265625.203125 2.621094-.140625 3.03125-.773437m0 0" style="stroke:none;fill-rule:nonzero;fill:#000;fill-opacity:1"/>
    <g clip-path="url(#c)">
        <path d="M24.287 10.228521c1.367187 2.109375-.9375 4.361979-5.143229 5.052083-4.21875.677084-8.736979-.46875-10.104167-2.578125-1.367187-2.109375.9375-4.361979 5.143229-5.052083 4.21875-.677083 8.736979.46875 10.104167 2.578125Zm0 0" style="fill:none;stroke-width:4.252;stroke-linecap:round;stroke-linejoin:miter;stroke:#000;stroke-opacity:1;stroke-miterlimit:10" transform="matrix(.3 0 0 -.3 95.2139 190.1584)"/>
    </g>
    <g clip-path="url(#d)">
        <path d="M.003146-.005854 10.69325 7.363938" style="fill:none;stroke-width:4.252;stroke-linecap:round;stroke-linejoin:miter;stroke:#000;stroke-opacity:1;stroke-miterlimit:10" transform="matrix(.3 0 0 -.3 95.2139 190.1584)"/>
    </g>
    <path d="M89.414062 191.84375c.410157-.632812-.28125-1.308594-1.542968-1.515625-1.265625-.203125-2.621094.140625-3.03125.773437-.414063.628907.277344 1.308594 1.542968 1.515626 1.261719.203124 2.621094-.140626 3.03125-.773438m0 0" style="stroke:none;fill-rule:nonzero;fill:#000;fill-opacity:1"/>
    <g clip-path="url(#e)">
        <path d="M-19.332792-5.617833c1.367188 2.109375-.9375 4.361979-5.143229 5.052083-4.21875.677083-8.736979-.46875-10.104167-2.578125-1.380208-2.096354.92448-4.361979 5.14323-5.052083 4.205729-.677084 8.736979.46875 10.104166 2.578125Zm0 0" style="fill:none;stroke-width:4.252;stroke-linecap:round;stroke-linejoin:miter;stroke:#000;stroke-opacity:1;stroke-miterlimit:10" transform="matrix(.3 0 0 -.3 95.2139 190.1584)"/>
    </g>
    <g clip-path="url(#f)">
        <path d="m.003146-.005854-17.317709-2.8125" style="fill:none;stroke-width:4.252;stroke-linecap:round;stroke-linejoin:miter;stroke:#000;stroke-opacity:1;stroke-miterlimit:10" transform="matrix(.3 0 0 -.3 95.2139 190.1584)"/>
    </g>
    <path d="M97.5 194.78125c.414062-.632812-.277344-1.308594-1.542969-1.515625-1.261719-.203125-2.621093.140625-3.03125.773437-.410156.632813.28125 1.308594 1.542969 1.515626 1.265625.203124 2.621094-.140626 3.03125-.773438m0 0" style="stroke:none;fill-rule:nonzero;fill:#000;fill-opacity:1"/>
    <g clip-path="url(#g)">
        <path d="M7.620333-15.4095c1.380209 2.109375-.924479 4.361979-5.143229 5.052083-4.205729.677084-8.736979-.46875-10.104167-2.578125-1.367187-2.109375.9375-4.361979 5.14323-5.052083 4.21875-.677083 8.736979.46875 10.104166 2.578125Zm0 0" style="fill:none;stroke-width:4.252;stroke-linecap:round;stroke-linejoin:miter;stroke:#000;stroke-opacity:1;stroke-miterlimit:10" transform="matrix(.3 0 0 -.3 95.2139 190.1584)"/>
    </g>
    <path d="M.003146-.005854v-9.101563m-299.505208 637.213542L-59.905708 114.278" style="fill:none;stroke-width:4.252;stroke-linecap:round;stroke-linejoin:miter;stroke:#000;stroke-opacity:1;stroke-miterlimit:10" transform="matrix(.3 0 0 -.3 95.2139 190.1584)"/>
    <g clip-path="url(#h)">
        <path d="M-2.301542-9.237625-59.905708 114.278" style="fill:none;stroke-width:4.252;stroke-linecap:round;stroke-linejoin:miter;stroke:#000;stroke-opacity:1;stroke-miterlimit:10" transform="matrix(.3 0 0 -.3 95.2139 190.1584)"/>
    </g>
    <g clip-path="url(#i)">
        <path d="m12.372937 16.061854-52.955729 56.783854" style="fill:none;stroke-width:4.252;stroke-linecap:round;stroke-linejoin:miter;stroke:#000;stroke-opacity:1;stroke-miterlimit:10" transform="matrix(.3 0 0 -.3 95.2139 190.1584)"/>
    </g>
    <g clip-path="url(#j)">
        <path d="m-27.405708.68425-4.726563 54.049479" style="fill:none;stroke-width:4.252;stroke-linecap:round;stroke-linejoin:miter;stroke:#000;stroke-opacity:1;stroke-miterlimit:10" transform="matrix(.3 0 0 -.3 95.2139 190.1584)"/>
    </g>
    <g clip-path="url(#k)">
        <path d="m-30.061958 31.087896-5.989584-12.851563" style="fill:none;stroke-width:4.252;stroke-linecap:round;stroke-linejoin:miter;stroke:#000;stroke-opacity:1;stroke-miterlimit:10" transform="matrix(.3 0 0 -.3 95.2139 190.1584)"/>
    </g>
    <g clip-path="url(#l)">
        <path d="m-20.960396 30.788417-1.236979-14.114584" style="fill:none;stroke-width:4.252;stroke-linecap:round;stroke-linejoin:miter;stroke:#000;stroke-opacity:1;stroke-miterlimit:10" transform="matrix(.3 0 0 -.3 95.2139 190.1584)"/>
    </g>
    <g clip-path="url(#m)">
        <path d="m-14.970813 17.936854 11.601563-8.125" style="fill:none;stroke-width:4.252;stroke-linecap:round;stroke-linejoin:miter;stroke:#000;stroke-opacity:1;stroke-miterlimit:10" transform="matrix(.3 0 0 -.3 95.2139 190.1584)"/>
    </g>
    <g clip-path="url(#n)">
        <path d="m-11.963 42.155604 3.190104-13.802083" style="fill:none;stroke-width:4.252;stroke-linecap:round;stroke-linejoin:miter;stroke:#000;stroke-opacity:1;stroke-miterlimit:10" transform="matrix(.3 0 0 -.3 95.2139 190.1584)"/>
    </g>
    <g clip-path="url(#o)">
        <path d="m-3.36925 32.949875 13.554687-4.140625" style="fill:none;stroke-width:4.252;stroke-linecap:round;stroke-linejoin:miter;stroke:#000;stroke-opacity:1;stroke-miterlimit:10" transform="matrix(.3 0 0 -.3 95.2139 190.1584)"/>
    </g>
    <path d="M-51.520292 96.296229V67.949875" style="fill:none;stroke-width:4.252;stroke-linecap:round;stroke-linejoin:miter;stroke:#000;stroke-opacity:1;stroke-miterlimit:10" transform="matrix(.3 0 0 -.3 95.2139 190.1584)"/>
    <g style="fill:#000;fill-opacity:1">
        <use xlink:href="#p" x="111.625" y="196.192"/>
        <use xlink:href="#q" x="128.061326" y="196.192"/>
        <use xlink:href="#r" x="133.578934" y="196.192"/>
        <use xlink:href="#s" x="146.530194" y="196.192"/>
    </g>
    <g style="fill:#000;fill-opacity:1">
        <use xlink:href="#t" x="159.459146" y="196.192"/>
        <use xlink:href="#u" x="174.93869" y="196.192"/>
        <use xlink:href="#v" x="189.969587" y="196.192"/>
    </g>
</svg>
